<svg width="230" height="44" viewBox="0 0 230 44" fill="none" xmlns="http://www.w3.org/2000/svg">
<path fill-rule="evenodd" clip-rule="evenodd" d="M19.7655 1.4479C19.2605 1.34403 18.7396 1.34403 18.2345 1.4479C17.6507 1.56797 17.1289 1.86023 16.7141 2.09258L16.601 2.15574L2.54153 9.96657C2.50266 9.98816 2.46261 10.0102 2.42157 10.0328C1.98243 10.2747 1.43029 10.5788 1.00627 11.0389C0.639674 11.4368 0.362246 11.9082 0.192535 12.4219C-0.00375985 13.016 -0.00146325 13.6464 0.000363158 14.1477C0.000533889 14.1946 0.000700421 14.2403 0.000700421 14.2847V29.7067C0.000700421 29.7511 0.000533889 29.7969 0.000363158 29.8437C-0.00146325 30.3451 -0.00375985 30.9754 0.192536 31.5695C0.362247 32.0832 0.639677 32.5547 1.00627 32.9525C1.43029 33.4126 1.98244 33.7167 2.42157 33.9586C2.46261 33.9812 2.50266 34.0033 2.54153 34.0249L16.601 41.8357L16.7141 41.8988C17.1289 42.1312 17.6507 42.4235 18.2345 42.5435C18.7396 42.6474 19.2605 42.6474 19.7655 42.5435C20.3493 42.4235 20.8711 42.1312 21.2859 41.8988L21.399 41.8357L35.4585 34.0249C35.4757 34.0153 35.4931 34.0057 35.5107 33.9959C35.5329 33.9837 35.5555 33.9712 35.5784 33.9586C36.0176 33.7167 36.5697 33.4126 36.9937 32.9525C37.3603 32.5547 37.6378 32.0832 37.8075 31.5695C38.0038 30.9754 38.0015 30.3451 37.9996 29.8437C37.9995 29.7969 37.9993 29.7511 37.9993 29.7067V14.2847C37.9993 14.2403 37.9995 14.1946 37.9996 14.1477C38.0015 13.6464 38.0038 13.016 37.8075 12.4219C37.6378 11.9082 37.3603 11.4367 36.9937 11.0389C36.5697 10.5788 36.0176 10.2747 35.5784 10.0328L35.5769 10.032C35.5364 10.0097 35.4968 9.98788 35.4585 9.96657L21.399 2.15574L21.2859 2.09257C20.8711 1.86022 20.3493 1.56797 19.7655 1.4479ZM18.4464 5.47742C18.7343 5.31746 18.8813 5.23664 18.9909 5.18376L19 5.17941L19.0091 5.18376C19.1187 5.23664 19.2657 5.31746 19.5536 5.47742L32.1871 12.496L18.9999 19.8222L5.81285 12.4961L18.4464 5.47742ZM3.80056 15.725L17.1 23.1136L17.1001 37.766L4.38691 30.7032C4.08301 30.5343 3.92785 30.4472 3.81899 30.3779L3.8098 30.372L3.80911 30.3611C3.80135 30.2323 3.80056 30.0543 3.80056 29.7067V15.725Z" fill="#15803D"/>
<path d="M53.4606 28.8H62.5206V33H47.6406V29.1L56.6406 16.14H47.6406V11.94H62.5206V15.84L53.4606 28.8ZM67.6517 14.52C66.7517 14.52 66.0117 14.26 65.4317 13.74C64.8717 13.2 64.5917 12.54 64.5917 11.76C64.5917 10.96 64.8717 10.3 65.4317 9.78C66.0117 9.24 66.7517 8.97 67.6517 8.97C68.5317 8.97 69.2517 9.24 69.8117 9.78C70.3917 10.3 70.6817 10.96 70.6817 11.76C70.6817 12.54 70.3917 13.2 69.8117 13.74C69.2517 14.26 68.5317 14.52 67.6517 14.52ZM70.2017 16.26V33H65.0717V16.26H70.2017ZM88.8994 24.36C88.8994 24.84 88.8694 25.34 88.8094 25.86H77.1994C77.2794 26.9 77.6094 27.7 78.1894 28.26C78.7894 28.8 79.5194 29.07 80.3794 29.07C81.6594 29.07 82.5494 28.53 83.0494 27.45H88.5094C88.2294 28.55 87.7194 29.54 86.9794 30.42C86.2594 31.3 85.3494 31.99 84.2494 32.49C83.1494 32.99 81.9194 33.24 80.5594 33.24C78.9194 33.24 77.4594 32.89 76.1794 32.19C74.8994 31.49 73.8994 30.49 73.1794 29.19C72.4594 27.89 72.0994 26.37 72.0994 24.63C72.0994 22.89 72.4494 21.37 73.1494 20.07C73.8694 18.77 74.8694 17.77 76.1494 17.07C77.4294 16.37 78.8994 16.02 80.5594 16.02C82.1794 16.02 83.6194 16.36 84.8794 17.04C86.1394 17.72 87.1194 18.69 87.8194 19.95C88.5394 21.21 88.8994 22.68 88.8994 24.36ZM83.6494 23.01C83.6494 22.13 83.3494 21.43 82.7494 20.91C82.1494 20.39 81.3994 20.13 80.4994 20.13C79.6394 20.13 78.9094 20.38 78.3094 20.88C77.7294 21.38 77.3694 22.09 77.2294 23.01H83.6494ZM95.9357 10.8V33H90.8057V10.8H95.9357ZM106.473 33.24C104.833 33.24 103.353 32.89 102.033 32.19C100.733 31.49 99.7034 30.49 98.9434 29.19C98.2034 27.89 97.8334 26.37 97.8334 24.63C97.8334 22.91 98.2134 21.4 98.9734 20.1C99.7334 18.78 100.773 17.77 102.093 17.07C103.413 16.37 104.893 16.02 106.533 16.02C108.173 16.02 109.653 16.37 110.973 17.07C112.293 17.77 113.333 18.78 114.093 20.1C114.853 21.4 115.233 22.91 115.233 24.63C115.233 26.35 114.843 27.87 114.063 29.19C113.303 30.49 112.253 31.49 110.913 32.19C109.593 32.89 108.113 33.24 106.473 33.24ZM106.473 28.8C107.453 28.8 108.283 28.44 108.963 27.72C109.663 27 110.013 25.97 110.013 24.63C110.013 23.29 109.673 22.26 108.993 21.54C108.333 20.82 107.513 20.46 106.533 20.46C105.533 20.46 104.703 20.82 104.043 21.54C103.383 22.24 103.053 23.27 103.053 24.63C103.053 25.97 103.373 27 104.013 27.72C104.673 28.44 105.493 28.8 106.473 28.8ZM127.355 16.08C129.315 16.08 130.875 16.72 132.035 18C133.215 19.26 133.805 21 133.805 23.22V33H128.705V23.91C128.705 22.79 128.415 21.92 127.835 21.3C127.255 20.68 126.475 20.37 125.495 20.37C124.515 20.37 123.735 20.68 123.155 21.3C122.575 21.92 122.285 22.79 122.285 23.91V33H117.155V16.26H122.285V18.48C122.805 17.74 123.505 17.16 124.385 16.74C125.265 16.3 126.255 16.08 127.355 16.08ZM135.55 24.6C135.55 22.88 135.87 21.37 136.51 20.07C137.17 18.77 138.06 17.77 139.18 17.07C140.3 16.37 141.55 16.02 142.93 16.02C144.11 16.02 145.14 16.26 146.02 16.74C146.92 17.22 147.61 17.85 148.09 18.63V16.26H153.22V33H148.09V30.63C147.59 31.41 146.89 32.04 145.99 32.52C145.11 33 144.08 33.24 142.9 33.24C141.54 33.24 140.3 32.89 139.18 32.19C138.06 31.47 137.17 30.46 136.51 29.16C135.87 27.84 135.55 26.32 135.55 24.6ZM148.09 24.63C148.09 23.35 147.73 22.34 147.01 21.6C146.31 20.86 145.45 20.49 144.43 20.49C143.41 20.49 142.54 20.86 141.82 21.6C141.12 22.32 140.77 23.32 140.77 24.6C140.77 25.88 141.12 26.9 141.82 27.66C142.54 28.4 143.41 28.77 144.43 28.77C145.45 28.77 146.31 28.4 147.01 27.66C147.73 26.92 148.09 25.91 148.09 24.63ZM172.181 18.72C172.181 19.94 171.901 21.06 171.341 22.08C170.781 23.08 169.921 23.89 168.761 24.51C167.601 25.13 166.161 25.44 164.441 25.44H161.261V33H156.131V11.94H164.441C166.121 11.94 167.541 12.23 168.701 12.81C169.861 13.39 170.731 14.19 171.311 15.21C171.891 16.23 172.181 17.4 172.181 18.72ZM164.051 21.36C165.031 21.36 165.761 21.13 166.241 20.67C166.721 20.21 166.961 19.56 166.961 18.72C166.961 17.88 166.721 17.23 166.241 16.77C165.761 16.31 165.031 16.08 164.051 16.08H161.261V21.36H164.051ZM173.032 24.6C173.032 22.88 173.352 21.37 173.992 20.07C174.652 18.77 175.542 17.77 176.662 17.07C177.782 16.37 179.032 16.02 180.412 16.02C181.592 16.02 182.622 16.26 183.502 16.74C184.402 17.22 185.092 17.85 185.572 18.63V16.26H190.702V33H185.572V30.63C185.072 31.41 184.372 32.04 183.472 32.52C182.592 33 181.562 33.24 180.382 33.24C179.022 33.24 177.782 32.89 176.662 32.19C175.542 31.47 174.652 30.46 173.992 29.16C173.352 27.84 173.032 26.32 173.032 24.6ZM185.572 24.63C185.572 23.35 185.212 22.34 184.492 21.6C183.792 20.86 182.932 20.49 181.912 20.49C180.892 20.49 180.022 20.86 179.302 21.6C178.602 22.32 178.252 23.32 178.252 24.6C178.252 25.88 178.602 26.9 179.302 27.66C180.022 28.4 180.892 28.77 181.912 28.77C182.932 28.77 183.792 28.4 184.492 27.66C185.212 26.92 185.572 25.91 185.572 24.63ZM203.843 33L198.743 25.98V33H193.613V10.8H198.743V23.07L203.813 16.26H210.143L203.183 24.66L210.203 33H203.843ZM210.338 24.6C210.338 22.88 210.658 21.37 211.298 20.07C211.958 18.77 212.848 17.77 213.968 17.07C215.088 16.37 216.338 16.02 217.718 16.02C218.898 16.02 219.928 16.26 220.808 16.74C221.708 17.22 222.398 17.85 222.878 18.63V16.26H228.008V33H222.878V30.63C222.378 31.41 221.678 32.04 220.778 32.52C219.898 33 218.868 33.24 217.688 33.24C216.328 33.24 215.088 32.89 213.968 32.19C212.848 31.47 211.958 30.46 211.298 29.16C210.658 27.84 210.338 26.32 210.338 24.6ZM222.878 24.63C222.878 23.35 222.518 22.34 221.798 21.6C221.098 20.86 220.238 20.49 219.218 20.49C218.198 20.49 217.328 20.86 216.608 21.6C215.908 22.32 215.558 23.32 215.558 24.6C215.558 25.88 215.908 26.9 216.608 27.66C217.328 28.4 218.198 28.77 219.218 28.77C220.238 28.77 221.098 28.4 221.798 27.66C222.518 26.92 222.878 25.91 222.878 24.63Z" fill="#030712"/>
</svg>
