<svg width="48" height="48" viewBox="0 0 48 48" fill="none" xmlns="http://www.w3.org/2000/svg">
<path fill-rule="evenodd" clip-rule="evenodd" d="M24.7655 3.4479C24.2604 3.34403 23.7396 3.34403 23.2345 3.4479C22.6507 3.56797 22.1289 3.86023 21.7141 4.09258L21.601 4.15574L7.54153 11.9666C7.50266 11.9882 7.46261 12.0102 7.42157 12.0328C6.98243 12.2747 6.43029 12.5788 6.00627 13.0389C5.63967 13.4368 5.36225 13.9082 5.19254 14.4219C4.99624 15.016 4.99854 15.6464 5.00036 16.1477C5.00053 16.1946 5.0007 16.2403 5.0007 16.2847V31.7067C5.0007 31.7511 5.00053 31.7969 5.00036 31.8437C4.99854 32.3451 4.99624 32.9754 5.19254 33.5695C5.36225 34.0832 5.63968 34.5547 6.00627 34.9525C6.43029 35.4126 6.98244 35.7167 7.42157 35.9586C7.46261 35.9812 7.50266 36.0033 7.54153 36.0249L21.601 43.8357L21.7141 43.8988C22.1289 44.1312 22.6507 44.4235 23.2345 44.5435C23.7396 44.6474 24.2604 44.6474 24.7655 44.5435C25.3493 44.4235 25.8711 44.1312 26.2859 43.8988L26.399 43.8357L40.4585 36.0249C40.4757 36.0153 40.4931 36.0057 40.5107 35.9959C40.5329 35.9837 40.5555 35.9712 40.5784 35.9586C41.0176 35.7167 41.5697 35.4126 41.9937 34.9525C42.3603 34.5547 42.6378 34.0832 42.8075 33.5695C43.0038 32.9754 43.0015 32.3451 42.9996 31.8437C42.9995 31.7969 42.9993 31.7511 42.9993 31.7067V16.2847C42.9993 16.2403 42.9995 16.1946 42.9996 16.1477C43.0015 15.6464 43.0038 15.016 42.8075 14.4219C42.6378 13.9082 42.3603 13.4367 41.9937 13.0389C41.5697 12.5788 41.0176 12.2747 40.5784 12.0328L40.5769 12.032C40.5364 12.0097 40.4968 11.9879 40.4585 11.9666L26.399 4.15574L26.2859 4.09257C25.8711 3.86022 25.3493 3.56797 24.7655 3.4479ZM23.4464 7.47742C23.7343 7.31746 23.8813 7.23664 23.9909 7.18376L24 7.17941L24.0091 7.18376C24.1187 7.23664 24.2657 7.31746 24.5536 7.47742L37.1871 14.496L23.9999 21.8222L10.8128 14.4961L23.4464 7.47742ZM8.80056 17.725L22.1 25.1136L22.1001 39.766L9.38691 32.7032C9.08301 32.5343 8.92785 32.4472 8.81899 32.3779L8.8098 32.372L8.80911 32.3611C8.80135 32.2323 8.80056 32.0543 8.80056 31.7067V17.725Z" fill="#15803D"/>
</svg>
